<svg xmlns="http://www.w3.org/2000/svg" width="278.319" height="73.577" viewBox="0 0 278.319 73.577"><defs><style>.a{fill:#fff100;}.b{fill:#00adee;}.c{fill:#eb008b;}</style></defs><g transform="translate(-43.987 -315.76)"><g transform="translate(43.987 315.76)"><g transform="translate(209.507)"><path d="M469.59,319.319a31.183,31.183,0,0,0-27.653,16.824h12.856a20.633,20.633,0,1,1,10.367,34.472v10.707a31.16,31.16,0,1,0,4.43-62Z" transform="translate(-440.165 -317.429)"/><path class="a" d="M468.253,323.621a28.494,28.494,0,0,0-24.817,14.54H456.97a17.942,17.942,0,0,1,29.241,13.954h10.536a28.526,28.526,0,0,0-28.493-28.494" transform="translate(-440.868 -319.447)"/><path class="b" d="M470.623,315.76A36.805,36.805,0,0,0,438.6,334.473h1.772a31.168,31.168,0,1,1,23.223,45.179v-3.793a24.358,24.358,0,0,1-8.211-4.349l-6.243,10.874a36.779,36.779,0,1,0,21.483-66.624" transform="translate(-438.599 -315.76)"/><path class="c" d="M468.253,323.621a28.494,28.494,0,0,0-24.817,14.54h13.2a24.3,24.3,0,0,1,40.1,13.114,28.529,28.529,0,0,0-28.481-27.654" transform="translate(-440.868 -319.447)"/></g><g transform="translate(0 22.39)"><path d="M43.987,358.76H55.522c6.107,0,9.141,4.191,9.141,9.021,0,4.789-3.034,8.9-9.141,8.9H51.531v8.7H43.987ZM54.6,365.186H51.531v5.069H54.6a2.539,2.539,0,0,0,0-5.069Z" transform="translate(-43.987 -358.321)"/><path d="M94.012,376.682H92.1v8.7H84.552V358.76H96.287a8.549,8.549,0,0,1,8.941,8.861c0,4.47-2.235,6.745-3.991,7.743l4.111,10.018H97.006Zm1.078-11.5H92.1v5.069H95.09a2.41,2.41,0,0,0,2.475-2.555A2.377,2.377,0,0,0,95.09,365.186Z" transform="translate(-63.015 -358.321)"/><path d="M127.1,358.76h7.544v26.623H127.1Z" transform="translate(-82.975 -358.321)"/><path d="M154.045,371.692v13.691H146.58V358.76h7.664l6.666,12.892V358.76h7.424v26.623h-7.145Z" transform="translate(-92.112 -358.321)"/><path d="M194.857,365.346h-5.508V358.76h18.56v6.586h-5.468v20.037h-7.584Z" transform="translate(-112.174 -358.321)"/><path d="M226.058,358.76H233.6v26.623h-7.544Z" transform="translate(-129.393 -358.321)"/><path d="M253,371.692v13.691h-7.464V358.76H253.2l6.666,12.892V358.76h7.424v26.623h-7.145Z" transform="translate(-138.53 -358.321)"/><path d="M301.766,357.933a10.082,10.082,0,0,1,9.779,6.985l-6.186,2.754C304.8,366,303.6,364.6,301.766,364.6c-2.595,0-4.511,2.156-4.511,7.1,0,4.909,1.916,7.1,4.511,7.1a4.812,4.812,0,0,0,3.153-1v-1.916h-3.792v-6.386H311.9v11.336a12.95,12.95,0,0,1-10.138,4.63c-7.384,0-12.214-5.468-12.214-13.77C289.552,363.321,294.422,357.933,301.766,357.933Z" transform="translate(-159.177 -357.933)"/><path d="M336.628,358.76h1.277v18.48c0,4.99,2.275,7.424,6.187,7.424s6.186-2.435,6.186-7.424V358.76h1.277v18.48c0,5.628-2.634,8.622-7.464,8.622-4.79,0-7.464-3.034-7.464-8.622Z" transform="translate(-181.26 -358.321)"/><path d="M375.772,361.634v23.749h-1.277V358.76h1.277L388.5,382.27V358.76h1.277v26.623H388.5Z" transform="translate(-199.022 -358.321)"/><path d="M413.107,358.76h1.277v26.623h-1.277Z" transform="translate(-217.135 -358.321)"/><path d="M428.109,359.957h-6.665v-1.2h14.649v1.2h-6.706v25.426h-1.277Z" transform="translate(-221.045 -358.321)"/><path d="M455.055,358.76h12.334v1.2H456.332v11.136h10.777v1.2H456.332v11.895h11.057v1.2H455.055Z" transform="translate(-236.812 -358.321)"/><path d="M485.215,358.76h5.827c6.506,0,9.979,5.907,9.979,13.331,0,7.5-3.473,13.292-9.979,13.292h-5.827Zm5.827,25.426c5.748,0,8.582-5.349,8.582-12.094,0-6.666-2.834-12.134-8.582-12.134h-4.551v24.228Z" transform="translate(-250.959 -358.321)"/></g></g><g transform="translate(43.987 371.211)"><path d="M43.987,420.556h5.075c3.576,0,6.232,2.044,6.232,5.671s-2.657,5.687-6.215,5.687H43.987Zm5.075,8.361a2.624,2.624,0,0,0,2.742-2.69,2.483,2.483,0,0,0-2.725-2.674H47.427v5.364Z" transform="translate(-43.987 -420.369)"/><path d="M71.774,420.556h3.44v11.358h-3.44Z" transform="translate(-57.021 -420.369)"/><path d="M90.927,420.2A5.338,5.338,0,0,1,95.916,423l-2.9,1.481a2.35,2.35,0,0,0-2.094-1.243,2.845,2.845,0,0,0,0,5.688,3.231,3.231,0,0,0,1.856-.511v-.494h-2.2V425.09H96.12v4.564a6.743,6.743,0,0,1-5.193,2.3c-3.44,0-6.25-2.247-6.25-5.875C84.677,422.434,87.487,420.2,90.927,420.2Z" transform="translate(-63.074 -420.203)"/><path d="M113.382,420.556h3.44v11.358h-3.44Z" transform="translate(-76.539 -420.369)"/><path d="M128.647,423.553H125.6v-3h9.519v3h-3.031v8.361h-3.44Z" transform="translate(-82.27 -420.369)"/><path d="M154.067,430.45h-4.359l-.443,1.464h-3.729l4.189-11.358h4.325l4.189,11.358h-3.73Zm-3.474-2.861h2.588l-1.294-4Z" transform="translate(-91.622 -420.369)"/><path d="M174.712,420.556h3.44v8.361h4.308v3h-7.748Z" transform="translate(-105.308 -420.369)"/><path d="M208.557,420.556h8.616v2.861H212v1.328h5.057v2.861H212v1.447h5.176v2.861h-8.616Z" transform="translate(-121.184 -420.369)"/><path d="M235.87,428.44l-2.077,3.474H229.74l3.8-5.824L230,420.556h4.036l1.839,3.235,1.805-3.235h4.069l-3.542,5.517,3.8,5.841h-4.053Z" transform="translate(-131.12 -420.369)"/><path d="M258.062,420.556h6.063a3.778,3.778,0,0,1,4.087,3.9,3.724,3.724,0,0,1-4.087,3.814H261.5v3.644h-3.44Zm5.62,2.861H261.5v1.992h2.18a1,1,0,1,0,0-1.992Z" transform="translate(-144.406 -420.369)"/><path d="M283.053,420.556h8.616v2.861h-5.176v1.328h5.057v2.861h-5.057v1.447h5.176v2.861h-8.616Z" transform="translate(-156.129 -420.369)"/><path d="M311.272,428.27h-1.243v3.644h-3.44V420.556h6.062a3.778,3.778,0,0,1,4.087,3.9,3.662,3.662,0,0,1-2.043,3.44l2.061,4.019h-3.917Zm.851-4.853h-2.094v1.992h2.094a1,1,0,1,0,0-1.992Z" transform="translate(-167.169 -420.369)"/><path d="M332.472,420.556h3.44v11.358h-3.44Z" transform="translate(-179.31 -420.369)"/><path d="M346.548,420.556h8.617v2.861h-5.177v1.328h5.058v2.861h-5.058v1.447h5.177v2.861h-8.617Z" transform="translate(-185.913 -420.369)"/><path d="M373.525,425.818v6.1h-3.44V420.556h3.542l3.951,5.722v-5.722h3.439v11.358h-3.3Z" transform="translate(-196.954 -420.369)"/><path d="M397.1,426.078a5.822,5.822,0,0,1,6.164-5.875,5.337,5.337,0,0,1,5.245,3.3l-2.963,1.379a2.434,2.434,0,0,0-2.282-1.652,2.849,2.849,0,0,0,0,5.688,2.433,2.433,0,0,0,2.282-1.652l2.963,1.362a5.4,5.4,0,0,1-5.245,3.32A5.832,5.832,0,0,1,397.1,426.078Z" transform="translate(-209.626 -420.203)"/><path d="M424.663,420.556h8.617v2.861H428.1v1.328h5.057v2.861H428.1v1.447h5.177v2.861h-8.617Z" transform="translate(-222.555 -420.369)"/></g></g></svg>