<svg xmlns="http://www.w3.org/2000/svg" width="254" height="67.098" viewBox="0 0 254 67.098"><defs><style>.a{fill:#fff;}.b{fill:#fe0;}.c{fill:#00a1ed;}.d{fill:#e0007a;}</style></defs><g transform="translate(-46.494 -207.405)"><g transform="translate(46.685 207.405)"><g transform="translate(191.057)"><path class="a" d="M470.056,210.964a28.438,28.438,0,0,0-25.218,15.343h11.724a18.817,18.817,0,1,1,9.454,31.436v9.764a28.415,28.415,0,1,0,4.04-56.542Z" transform="translate(-443.222 -209.241)"/><path class="b" d="M468.969,215.267a25.984,25.984,0,0,0-22.631,13.26H458.68a16.362,16.362,0,0,1,26.666,12.724h9.608a26.014,26.014,0,0,0-25.984-25.984" transform="translate(-443.996 -211.461)"/><path class="c" d="M470.7,207.4a33.563,33.563,0,0,0-29.2,17.066h1.616a28.426,28.426,0,1,1,21.178,41.2v-3.459a22.208,22.208,0,0,1-7.488-3.966l-5.693,9.917A33.54,33.54,0,1,0,470.7,207.4" transform="translate(-441.501 -207.405)"/><path class="d" d="M468.969,215.267a25.984,25.984,0,0,0-22.631,13.26h12.037a22.162,22.162,0,0,1,36.567,11.959,26.016,26.016,0,0,0-25.973-25.219" transform="translate(-443.996 -211.461)"/></g><g transform="translate(0 20.419)"><path class="a" d="M46.888,250.4H57.407c5.569,0,8.335,3.822,8.335,8.226,0,4.368-2.766,8.117-8.335,8.117h-3.64v7.935H46.888Zm9.682,5.86h-2.8v4.623h2.8a2.315,2.315,0,0,0,0-4.623Z" transform="translate(-46.888 -250.005)"/><path class="a" d="M96.08,266.748H94.333v7.935h-6.88V250.4h10.7a7.8,7.8,0,0,1,8.154,8.081c0,4.077-2.038,6.152-3.64,7.061l3.749,9.136H98.81Zm.983-10.483h-2.73v4.623h2.73a2.2,2.2,0,0,0,2.257-2.329A2.168,2.168,0,0,0,97.063,256.265Z" transform="translate(-67.813 -250.005)"/><path class="a" d="M130,250.4h6.879v24.278H130Z" transform="translate(-89.762 -250.005)"/><path class="a" d="M156.289,262.2v12.485h-6.807V250.4h6.988l6.079,11.757V250.4h6.77v24.278H162.8Z" transform="translate(-99.81 -250.005)"/><path class="a" d="M197.273,256.411H192.25V250.4h16.926v6.006h-4.987v18.272h-6.916Z" transform="translate(-121.871 -250.005)"/><path class="a" d="M228.959,250.4h6.88v24.278h-6.88Z" transform="translate(-140.807 -250.005)"/><path class="a" d="M255.244,262.2v12.485h-6.807V250.4h6.988l6.079,11.757V250.4h6.77v24.278h-6.515Z" transform="translate(-150.855 -250.005)"/><path class="a" d="M303.591,249.578a9.194,9.194,0,0,1,8.918,6.37l-5.641,2.511a3.589,3.589,0,0,0-3.276-2.8c-2.366,0-4.113,1.966-4.113,6.479,0,4.478,1.747,6.48,4.113,6.48a4.387,4.387,0,0,0,2.876-.91v-1.747h-3.458v-5.824h9.828v10.338a11.81,11.81,0,0,1-9.246,4.222c-6.734,0-11.138-4.987-11.138-12.558C292.453,254.492,296.894,249.578,303.591,249.578Z" transform="translate(-173.56 -249.578)"/><path class="a" d="M339.53,250.4h1.164v16.853c0,4.55,2.075,6.771,5.642,6.771s5.642-2.22,5.642-6.771V250.4h1.165v16.853c0,5.133-2.4,7.863-6.807,7.863-4.368,0-6.806-2.766-6.806-7.863Z" transform="translate(-197.844 -250.005)"/><path class="a" d="M378.561,253.026v21.658H377.4V250.4h1.164l11.611,21.439V250.4h1.165v24.278h-1.165Z" transform="translate(-217.377 -250.005)"/><path class="a" d="M416.008,250.4h1.164v24.278h-1.164Z" transform="translate(-237.294 -250.005)"/><path class="a" d="M430.424,251.5h-6.079V250.4H437.7V251.5h-6.115v23.186h-1.164Z" transform="translate(-241.595 -250.005)"/><path class="a" d="M457.956,250.4H469.2V251.5H459.121v10.155h9.828v1.092h-9.828v10.847H469.2v1.092H457.956Z" transform="translate(-258.933 -250.005)"/><path class="a" d="M488.117,250.4h5.314c5.933,0,9.1,5.387,9.1,12.157,0,6.843-3.167,12.121-9.1,12.121h-5.314Zm5.314,23.186c5.242,0,7.826-4.877,7.826-11.029,0-6.078-2.584-11.065-7.826-11.065h-4.149v22.094Z" transform="translate(-274.491 -250.005)"/></g></g><g transform="translate(46.494 257.973)"><path class="a" d="M46.494,312.2h4.628c3.261,0,5.684,1.864,5.684,5.171s-2.423,5.187-5.669,5.187H46.494Zm4.628,7.625a2.393,2.393,0,0,0,2.5-2.454,2.264,2.264,0,0,0-2.485-2.438H49.631v4.892Z" transform="translate(-46.494 -312.031)"/><path class="a" d="M74.282,312.2h3.137V322.56H74.282Z" transform="translate(-60.828 -312.031)"/><path class="a" d="M92.884,311.849a4.87,4.87,0,0,1,4.55,2.547l-2.64,1.351a2.144,2.144,0,0,0-1.91-1.133,2.595,2.595,0,0,0,0,5.187,2.95,2.95,0,0,0,1.693-.466v-.451h-2v-2.578H97.62v4.162a6.148,6.148,0,0,1-4.736,2.1c-3.137,0-5.7-2.049-5.7-5.357C87.185,313.883,89.747,311.849,92.884,311.849Z" transform="translate(-67.484 -311.849)"/><path class="a" d="M115.89,312.2h3.137V322.56H115.89Z" transform="translate(-82.291 -312.031)"/><path class="a" d="M130.886,314.935h-2.78V312.2h8.681v2.733h-2.765v7.625h-3.137Z" transform="translate(-88.593 -312.031)"/><path class="a" d="M155.824,321.224h-3.975l-.4,1.336h-3.4l3.82-10.358h3.944l3.82,10.358h-3.4Zm-3.168-2.608h2.36l-1.18-3.65Z" transform="translate(-98.877 -312.031)"/><path class="a" d="M177.22,312.2h3.137v7.625h3.929v2.733H177.22Z" transform="translate(-113.927 -312.031)"/><path class="a" d="M211.064,312.2h7.858v2.609H214.2v1.211h4.612v2.609H214.2v1.32h4.721v2.609h-7.858Z" transform="translate(-131.385 -312.031)"/><path class="a" d="M237.838,319.392l-1.895,3.168h-3.7l3.463-5.311-3.23-5.046h3.68l1.677,2.95,1.646-2.95H243.2l-3.23,5.031,3.463,5.326h-3.7Z" transform="translate(-142.313 -312.031)"/><path class="a" d="M260.57,312.2H266.1a3.445,3.445,0,0,1,3.727,3.556,3.4,3.4,0,0,1-3.727,3.478h-2.391v3.323H260.57Zm5.124,2.609h-1.987v1.817h1.987a.909.909,0,1,0,0-1.817Z" transform="translate(-156.923 -312.031)"/><path class="a" d="M285.56,312.2h7.858v2.609H288.7v1.211h4.612v2.609H288.7v1.32h4.721v2.609H285.56Z" transform="translate(-169.813 -312.031)"/><path class="a" d="M313.368,319.236h-1.133v3.323H309.1V312.2h5.528a3.445,3.445,0,0,1,3.727,3.556,3.34,3.34,0,0,1-1.864,3.137l1.879,3.665H314.8Zm.776-4.426h-1.91v1.817h1.91a.915.915,0,1,0,0-1.817Z" transform="translate(-181.955 -312.031)"/><path class="a" d="M334.98,312.2h3.137V322.56H334.98Z" transform="translate(-195.306 -312.031)"/><path class="a" d="M349.057,312.2h7.857v2.609h-4.721v1.211h4.613v2.609h-4.613v1.32h4.721v2.609h-7.857Z" transform="translate(-202.568 -312.031)"/><path class="a" d="M375.73,317v5.559h-3.136V312.2h3.23l3.6,5.218V312.2h3.137V322.56h-3.012Z" transform="translate(-214.709 -312.031)"/><path class="a" d="M399.608,317.207a5.31,5.31,0,0,1,5.622-5.358,4.869,4.869,0,0,1,4.783,3.012l-2.7,1.258a2.219,2.219,0,0,0-2.081-1.506,2.6,2.6,0,0,0,0,5.187,2.219,2.219,0,0,0,2.081-1.506l2.7,1.242a4.924,4.924,0,0,1-4.783,3.028A5.319,5.319,0,0,1,399.608,317.207Z" transform="translate(-228.644 -311.849)"/><path class="a" d="M427.172,312.2h7.857v2.609h-4.721v1.211h4.613v2.609h-4.613v1.32h4.721v2.609h-7.857Z" transform="translate(-242.862 -312.031)"/></g></g></svg>